<mxfile host="app.diagrams.net" agent="Mozilla/5.0 (X11; Linux x86_64; rv:143.0) Gecko/20100101 Firefox/143.0" version="28.2.7">
  <diagram name="Page 1" id="Page-1">
    <mxGraphModel dx="1360" dy="765" grid="1" gridSize="10" guides="1" tooltips="1" connect="1" arrows="1" fold="1" page="1" pageScale="1" pageWidth="827" pageHeight="1169" math="0" shadow="0">
      <root>
        <mxCell id="0" />
        <mxCell id="1" parent="0" />
        <UserObject label="&lt;div style=&quot;font-size: 1px&quot;&gt;&lt;p style=&quot;text-align:left;margin-left:0;margin-right:0;margin-top:0px;margin-bottom:0px;text-indent:0;vertical-align:middle;direction:ltr;&quot;&gt;&lt;font style=&quot;font-size:8.47px;font-family:Calibri;color:#000000;direction:ltr;letter-spacing:0px;line-height:120%;opacity:1&quot;&gt;Métal&lt;br/&gt;&lt;/font&gt;&lt;/p&gt;&lt;/div&gt;" tags="Arrière-plan" id="11">
          <mxCell style="verticalAlign=middle;align=left;overflow=width;vsdxID=17;fillColor=none;gradientColor=none;shape=stencil(nZBLDoAgDERP0z3SIyjew0SURgSD+Lu9kMZoXLhwN9O+tukAlrNpJg1SzDH4QW/URgNYgZTkjA4UkwJUgGXng+6DX1zLfmoymdXo17xh5zmRJ6Q42BWCfc2oJfdAr+Yv+AP9Cb7OJ3H/2JG1HNGz/84klThPVCc=);strokeColor=none;spacingTop=-2;spacingBottom=-2;spacingLeft=-2;spacingRight=-2;points=[];labelBackgroundColor=none;rounded=0;html=1;whiteSpace=wrap;convertToSvg=1;" parent="1" vertex="1">
            <mxGeometry x="194" y="40" width="24" height="10" as="geometry" />
          </mxCell>
        </UserObject>
        <UserObject label="&lt;div style=&quot;font-size: 1px&quot;&gt;&lt;p style=&quot;text-align:left;margin-left:0;margin-right:0;margin-top:0px;margin-bottom:0px;text-indent:0;vertical-align:middle;direction:ltr;&quot;&gt;&lt;font style=&quot;font-size:8.47px;font-family:Calibri;color:#000000;direction:ltr;letter-spacing:0px;line-height:120%;opacity:1&quot;&gt;Mica&lt;br/&gt;&lt;/font&gt;&lt;/p&gt;&lt;/div&gt;" tags="Arrière-plan" id="12">
          <mxCell style="verticalAlign=middle;align=left;overflow=width;vsdxID=18;fillColor=none;gradientColor=none;shape=stencil(nZBLDoAgDERP0z3SIyjew0SURgSD+Lu9kMZoXLhwN9O+tukAlrNpJg1SzDH4QW/URgNYgZTkjA4UkwJUgGXng+6DX1zLfmoymdXo17xh5zmRJ6Q42BWCfc2oJfdAr+Yv+AP9Cb7OJ3H/2JG1HNGz/84klThPVCc=);strokeColor=none;spacingTop=-2;spacingBottom=-2;spacingLeft=-2;spacingRight=-2;points=[];labelBackgroundColor=none;rounded=0;html=1;whiteSpace=wrap;convertToSvg=1;" parent="1" vertex="1">
            <mxGeometry x="194" y="50" width="24" height="10" as="geometry" />
          </mxCell>
        </UserObject>
        <UserObject label="" tags="Arrière-plan" id="2">
          <mxCell style="vsdxID=1;fillColor=none;gradientColor=none;shape=stencil(nZBLDoAgDERP0z3SIyjew0SURgSD+Lu9kMZoXLhwN9O+tukAlrNpJg1SzDH4QW/URgNYgZTkjA4UkwJUgGXng+6DX1zLfmoymdXo17xh5zmRJ6Q42BWCfc2oJfdAr+Yv+AP9Cb7OJ3H/2JG1HNGz/84klThPVCc=);strokeColor=#000000;spacingTop=-2;spacingBottom=-2;spacingLeft=-2;spacingRight=-2;points=[];labelBackgroundColor=none;rounded=0;html=1;whiteSpace=wrap;" parent="1" vertex="1">
            <mxGeometry x="152" y="50" width="40" height="8" as="geometry" />
          </mxCell>
        </UserObject>
        <UserObject label="" tags="Arrière-plan" id="17">
          <mxCell style="vsdxID=2;edgeStyle=none;startArrow=none;endArrow=none;startSize=3;endSize=3;strokeColor=#000000;spacingTop=-2;spacingBottom=-2;spacingLeft=-2;spacingRight=-2;verticalAlign=middle;html=1;labelBackgroundColor=#ffffff;rounded=0;" parent="1" edge="1">
            <mxGeometry relative="1" as="geometry">
              <mxPoint as="offset" />
              <Array as="points" />
              <mxPoint x="152" y="46" as="sourcePoint" />
              <mxPoint x="192" y="46" as="targetPoint" />
            </mxGeometry>
          </mxCell>
        </UserObject>
        <UserObject label="" tags="Arrière-plan" id="3">
          <mxCell style="vsdxID=3;fillColor=none;gradientColor=none;shape=stencil(nZBLDoAgDERP0z3SIyjew0SURgSD+Lu9kMZoXLhwN9O+tukAlrNpJg1SzDH4QW/URgNYgZTkjA4UkwJUgGXng+6DX1zLfmoymdXo17xh5zmRJ6Q42BWCfc2oJfdAr+Yv+AP9Cb7OJ3H/2JG1HNGz/84klThPVCc=);strokeColor=#000000;spacingTop=-2;spacingBottom=-2;spacingLeft=-2;spacingRight=-2;points=[];labelBackgroundColor=none;rounded=0;html=1;whiteSpace=wrap;" parent="1" vertex="1">
            <mxGeometry x="152" y="66" width="40" height="8" as="geometry" />
          </mxCell>
        </UserObject>
        <UserObject label="" tags="Arrière-plan" id="18">
          <mxCell style="vsdxID=4;edgeStyle=none;startArrow=none;endArrow=none;startSize=3;endSize=3;strokeColor=#000000;spacingTop=-2;spacingBottom=-2;spacingLeft=-2;spacingRight=-2;verticalAlign=middle;html=1;labelBackgroundColor=#ffffff;rounded=0;" parent="1" edge="1">
            <mxGeometry relative="1" as="geometry">
              <mxPoint as="offset" />
              <Array as="points" />
              <mxPoint x="152" y="62" as="sourcePoint" />
              <mxPoint x="192" y="62" as="targetPoint" />
            </mxGeometry>
          </mxCell>
        </UserObject>
        <UserObject label="" tags="Arrière-plan" id="4">
          <mxCell style="vsdxID=5;fillColor=none;gradientColor=none;shape=stencil(nZBLDoAgDERP0z3SIyjew0SURgSD+Lu9kMZoXLhwN9O+tukAlrNpJg1SzDH4QW/URgNYgZTkjA4UkwJUgGXng+6DX1zLfmoymdXo17xh5zmRJ6Q42BWCfc2oJfdAr+Yv+AP9Cb7OJ3H/2JG1HNGz/84klThPVCc=);strokeColor=#000000;spacingTop=-2;spacingBottom=-2;spacingLeft=-2;spacingRight=-2;points=[];labelBackgroundColor=none;rounded=0;html=1;whiteSpace=wrap;" parent="1" vertex="1">
            <mxGeometry x="152" y="82" width="40" height="8" as="geometry" />
          </mxCell>
        </UserObject>
        <UserObject label="" tags="Arrière-plan" id="19">
          <mxCell style="vsdxID=6;edgeStyle=none;startArrow=none;endArrow=none;startSize=3;endSize=3;strokeColor=#000000;spacingTop=-2;spacingBottom=-2;spacingLeft=-2;spacingRight=-2;verticalAlign=middle;html=1;labelBackgroundColor=#ffffff;rounded=0;" parent="1" edge="1">
            <mxGeometry relative="1" as="geometry">
              <mxPoint as="offset" />
              <Array as="points" />
              <mxPoint x="152" y="78" as="sourcePoint" />
              <mxPoint x="192" y="78" as="targetPoint" />
            </mxGeometry>
          </mxCell>
        </UserObject>
        <UserObject label="" tags="Arrière-plan" id="20">
          <mxCell style="vsdxID=7;edgeStyle=none;startArrow=none;endArrow=none;startSize=3;endSize=3;strokeColor=#000000;spacingTop=-2;spacingBottom=-2;spacingLeft=-2;spacingRight=-2;verticalAlign=middle;html=1;labelBackgroundColor=#ffffff;rounded=0;" parent="1" edge="1">
            <mxGeometry relative="1" as="geometry">
              <mxPoint as="offset" />
              <Array as="points" />
              <mxPoint x="152" y="94" as="sourcePoint" />
              <mxPoint x="192" y="94" as="targetPoint" />
            </mxGeometry>
          </mxCell>
        </UserObject>
        <UserObject label="" tags="Arrière-plan" id="5">
          <mxCell style="vsdxID=8;fillColor=none;gradientColor=none;shape=stencil(nZBJDoAgDEVP0z3SIyDew0QUooJBnG4vpDES4srd/+3rCChW3S4KOFuDd6M6TBc0YA2cG6uVNyEqQAkoeufV4N1mO/JLm8ikZrenDifVVYylGs4u8uQaQidjM/Qn+Ez4RMvxBRzFuzjdnOfKI2OIHoTyBg==);strokeColor=#000000;spacingTop=-2;spacingBottom=-2;spacingLeft=-2;spacingRight=-2;points=[];labelBackgroundColor=#ffffff;rounded=0;html=1;whiteSpace=wrap;" parent="1" vertex="1">
            <mxGeometry x="144" y="46" width="8" height="32" as="geometry" />
          </mxCell>
        </UserObject>
        <UserObject label="" tags="Arrière-plan" id="6">
          <mxCell style="vsdxID=9;fillColor=none;gradientColor=none;shape=stencil(nY9LDoAgDERP0z3SI/i5BwkoRAWC+Lu9kGokLt3NtK/NDGC9aOEVcLbE4Ea1Gxk1YAOcG6tVMDEpwBaw7l1QQ3CrleS9yGRWs9vyh4PuWL7g7CxdR+BkbAFW7Df6+BtO4k1DRcrdN3kaUWtsLw==);strokeColor=#000000;spacingTop=-2;spacingBottom=-2;spacingLeft=-2;spacingRight=-2;points=[];labelBackgroundColor=#ffffff;rounded=0;html=1;whiteSpace=wrap;" parent="1" vertex="1">
            <mxGeometry x="192" y="62" width="8" height="32" as="geometry" />
          </mxCell>
        </UserObject>
        <UserObject label="" tags="Arrière-plan" id="7">
          <mxCell style="vsdxID=13;fillColor=#000000;gradientColor=none;shape=stencil(vVHLDsIgEPwajiQI6RfU+h8bu22JCGRB2/69kG1iazx58DazM/vIjjBtmiCi0CplCjecbZ8nYc5Ca+snJJsLEqYTph0C4Ujh4XvmEaqzont41gkL96naodXKrGF6YSfQtUi0OXXDVlqPfJNP6usotUhYbJIUMmQb/GGrAxpRljVycDBuc1hKM2LclX8/7H9nFfB+82Cd45T2+mcspcSRmu4F);strokeColor=#000000;spacingTop=-2;spacingBottom=-2;spacingLeft=-2;spacingRight=-2;points=[[0.5,0.5,0]];labelBackgroundColor=none;rounded=0;html=1;whiteSpace=wrap;" parent="1" vertex="1">
            <mxGeometry x="143" y="77" width="2" height="2" as="geometry" />
          </mxCell>
        </UserObject>
        <UserObject label="" tags="Arrière-plan" id="8">
          <mxCell style="vsdxID=14;fillColor=#000000;gradientColor=none;shape=stencil(vVHLDsIgEPwajiQI6RfU+h8bu22JCGRB2/69kG1iazx58DazM/vIjjBtmiCi0CplCjecbZ8nYc5Ca+snJJsLEqYTph0C4Ujh4XvmEaqzont41gkL96naodXKrGF6YSfQtUi0OXXDVlqPfJNP6usotUhYbJIUMmQb/GGrAxpRljVycDBuc1hKM2LclX8/7H9nFfB+82Cd45T2+mcspcSRmu4F);strokeColor=#000000;spacingTop=-2;spacingBottom=-2;spacingLeft=-2;spacingRight=-2;points=[[0.5,0.5,0]];labelBackgroundColor=none;rounded=0;html=1;whiteSpace=wrap;" parent="1" vertex="1">
            <mxGeometry x="199" y="93" width="2" height="2" as="geometry" />
          </mxCell>
        </UserObject>
        <UserObject label="" tags="Arrière-plan" id="9">
          <mxCell style="vsdxID=15;fillColor=none;gradientColor=none;shape=stencil(vVHLDsIgEPwajiQI6RfU+h8bu22JCGRB2/69kG1iazx58DazM/vIjjBtmiCi0CplCjecbZ8nYc5Ca+snJJsLEqYTph0C4Ujh4XvmEaqzont41gkL96naodXKrGF6YSfQtUi0OXXDVlqPfJNP6usotUhYbJIUMmQb/GGrAxpRljVycDBuc1hKM2LclX8/7H9nFfB+82Cd45T2+mcspcSRmu4F);strokeColor=#000000;spacingTop=-2;spacingBottom=-2;spacingLeft=-2;spacingRight=-2;points=[[0.5,0,0],[0,0.5,0],[0.5,1,0],[1,0.5,0]];labelBackgroundColor=none;rounded=0;html=1;whiteSpace=wrap;" parent="1" vertex="1">
            <mxGeometry x="142" y="102" width="4" height="4" as="geometry" />
          </mxCell>
        </UserObject>
        <UserObject label="" tags="Arrière-plan" id="10">
          <mxCell style="vsdxID=16;fillColor=none;gradientColor=none;shape=stencil(vVHLDsIgEPwajiQI6RfU+h8bu22JCGRB2/69kG1iazx58DazM/vIjjBtmiCi0CplCjecbZ8nYc5Ca+snJJsLEqYTph0C4Ujh4XvmEaqzont41gkL96naodXKrGF6YSfQtUi0OXXDVlqPfJNP6usotUhYbJIUMmQb/GGrAxpRljVycDBuc1hKM2LclX8/7H9nFfB+82Cd45T2+mcspcSRmu4F);strokeColor=#000000;spacingTop=-2;spacingBottom=-2;spacingLeft=-2;spacingRight=-2;points=[[0.5,0,0],[0,0.5,0],[0.5,1,0],[1,0.5,0]];labelBackgroundColor=none;rounded=0;html=1;whiteSpace=wrap;" parent="1" vertex="1">
            <mxGeometry x="198" y="102" width="4" height="4" as="geometry" />
          </mxCell>
        </UserObject>
        <UserObject label="" tags="Arrière-plan" id="13">
          <mxCell style="vsdxID=12;edgeStyle=none;startArrow=none;endArrow=none;startSize=3;endSize=3;strokeColor=#000000;spacingTop=-2;spacingBottom=-2;spacingLeft=-2;spacingRight=-2;verticalAlign=middle;html=1;labelBackgroundColor=#ffffff;rounded=0;exitX=0.5;exitY=0.5;exitDx=0;exitDy=0;exitPerimeter=0;entryX=0.5;entryY=0;entryDx=0;entryDy=0;entryPerimeter=0;" parent="1" source="7" target="9" edge="1">
            <mxGeometry relative="1" as="geometry">
              <Array as="points" />
            </mxGeometry>
          </mxCell>
        </UserObject>
        <UserObject label="" tags="Arrière-plan" id="14">
          <mxCell style="vsdxID=11;edgeStyle=none;startArrow=none;endArrow=none;startSize=3;endSize=3;strokeColor=#000000;spacingTop=-2;spacingBottom=-2;spacingLeft=-2;spacingRight=-2;verticalAlign=middle;html=1;labelBackgroundColor=#ffffff;rounded=0;exitX=0.5;exitY=0.5;exitDx=0;exitDy=0;exitPerimeter=0;entryX=0.5;entryY=0;entryDx=0;entryDy=0;entryPerimeter=0;" parent="1" source="8" target="10" edge="1">
            <mxGeometry relative="1" as="geometry">
              <Array as="points" />
            </mxGeometry>
          </mxCell>
        </UserObject>
        <mxCell id="15" parent="1" vertex="1">
          <mxGeometry x="192" y="94" as="geometry" />
        </mxCell>
        <UserObject label="" tags="Arrière-plan" id="16">
          <mxCell style="vsdxID=10;edgeStyle=none;startArrow=none;endArrow=none;startSize=3;endSize=3;strokeColor=#000000;spacingTop=-2;spacingBottom=-2;spacingLeft=-2;spacingRight=-2;verticalAlign=middle;html=1;labelBackgroundColor=#ffffff;rounded=0;entryX=0.5;entryY=0.5;entryDx=0;entryDy=0;entryPerimeter=0;" parent="1" source="15" target="8" edge="1">
            <mxGeometry relative="1" as="geometry">
              <mxPoint as="offset" />
              <Array as="points" />
            </mxGeometry>
          </mxCell>
        </UserObject>
        <UserObject label="" tags="Électrique Lien" id="21">
          <mxCell parent="1" vertex="1" visible="0">
            <mxGeometry as="geometry" />
          </mxCell>
        </UserObject>
      </root>
    </mxGraphModel>
  </diagram>
</mxfile>
